<svg xmlns="http://www.w3.org/2000/svg" version="1.1" xmlns:xlink="http://www.w3.org/1999/xlink" xmlns:svgjs="http://svgjs.dev/svgjs" width="1440" height="573" preserveAspectRatio="none" viewBox="0 0 1440 573"><g mask="url(&quot;#SvgjsMask1002&quot;)" fill="none"><rect width="1440" height="573" x="0" y="0" fill="url(&quot;#SvgjsLinearGradient1003&quot;)"></rect><path d="M343.220324230164 440.0409428754556L270.7473162609848 347.27972276544233 250.45910412015076 512.5139508446348z" fill="rgba(255, 255, 255, 0.4)" class="triangle-float1"></path><path d="M602.586,687.862C655.617,687.247,713.17,672.46,737.135,625.148C759.723,580.555,728.616,532.418,703.094,489.437C678.377,447.812,650.989,399.368,602.586,398.559C553.367,397.736,521.704,443.944,496.082,485.976C468.884,530.594,438.137,582.116,462.519,628.333C487.889,676.424,548.217,688.493,602.586,687.862" fill="rgba(255, 255, 255, 0.4)" class="triangle-float3"></path><path d="M27.59774726460027 198.7175023633369L117.01868409768619 266.1010114778949 184.40219321224413 176.68007464480894 94.98125637915822 109.29656553025099z" fill="rgba(255, 255, 255, 0.4)" class="triangle-float2"></path><path d="M874.4558598502318 234.6680823030216L874.4558598502318 335.5643610971787 1025.8002780414674 285.11622170010014z" fill="rgba(255, 255, 255, 0.4)" class="triangle-float3"></path><path d="M1461.928,674.279C1516.149,673.475,1557.953,631.316,1583.604,583.54C1607.706,538.649,1610.386,486.337,1587.194,440.969C1561.584,390.873,1518.186,344.746,1461.928,345.528C1406.562,346.297,1368.476,395.441,1342.549,444.367C1318.603,489.554,1310.271,541.859,1333.837,587.245C1359.333,636.347,1406.607,675.1,1461.928,674.279" fill="rgba(255, 255, 255, 0.4)" class="triangle-float3"></path><path d="M913.92,571.739C933.014,572.051,952.85,567.016,963.164,550.944C974.242,533.682,975.144,510.826,964.103,493.54C953.736,477.308,933.179,474.032,913.92,473.847C894.218,473.658,872.379,475.787,862.044,492.562C851.35,509.92,856.213,532.326,867.386,549.38C877.495,564.808,895.477,571.438,913.92,571.739" fill="rgba(255, 255, 255, 0.4)" class="triangle-float3"></path><path d="M151.359,508.65C202.85,506.62,245.587,470.818,268.686,424.754C289.495,383.257,282.035,335.17,258.379,295.228C235.239,256.156,196.769,226.623,151.359,226.653C105.995,226.683,69.218,257.277,44.585,295.37C17.028,337.985,-5.881,389.302,16.837,434.682C41.389,483.725,96.556,510.81,151.359,508.65" fill="rgba(255, 255, 255, 0.4)" class="triangle-float1"></path><path d="M863.0162580750289 545.1560810926727L953.7050475074503 502.97237893784285 882.970373931977 451.5806303806844z" fill="rgba(255, 255, 255, 0.4)" class="triangle-float2"></path><path d="M687.3681198171162 640.9348039124458L793.4160095337372 616.4517194408862 703.6674379680874 469.6214271017344z" fill="rgba(255, 255, 255, 0.4)" class="triangle-float2"></path><path d="M698.3875340331268 126.97579870062994L744.6481972892348 236.248515810514 808.5100863399495 154.50902530400904z" fill="rgba(255, 255, 255, 0.4)" class="triangle-float1"></path><path d="M169.00812603683164 136.27270310709534L205.16158501345134-8.144431405997011 79.45692888601394 25.538029688181865z" fill="rgba(255, 255, 255, 0.4)" class="triangle-float2"></path><path d="M1387.680928722285 38.281089868761995L1283.0841546490792 132.28010430176994 1399.3178810865122 172.30258590973511z" fill="rgba(255, 255, 255, 0.4)" class="triangle-float1"></path><path d="M547.7059393439879 533.0169738391446L439.23471748988936 561.9709809843943 507.4090529823389 632.5675720093541z" fill="rgba(255, 255, 255, 0.4)" class="triangle-float3"></path><path d="M522.2056387713617 404.5592733728467L613.0466097386902 439.42985503490036 557.0762204334154 313.7183024055182z" fill="rgba(255, 255, 255, 0.4)" class="triangle-float3"></path></g><defs><mask id="SvgjsMask1002"><rect width="1440" height="573" fill="#ffffff"></rect></mask><linearGradient x1="84.95%" y1="137.83%" x2="15.05%" y2="-37.83%" gradientUnits="userSpaceOnUse" id="SvgjsLinearGradient1003"><stop stop-color="rgba(255, 221, 129, 1)" offset="0"></stop><stop stop-color="rgba(255, 124, 15, 1)" offset="0.97"></stop></linearGradient><style>
                @keyframes float1 {
                    0%{transform: translate(0, 0)}
                    50%{transform: translate(-10px, 0)}
                    100%{transform: translate(0, 0)}
                }

                .triangle-float1 {
                    animation: float1 5s infinite;
                }

                @keyframes float2 {
                    0%{transform: translate(0, 0)}
                    50%{transform: translate(-5px, -5px)}
                    100%{transform: translate(0, 0)}
                }

                .triangle-float2 {
                    animation: float2 4s infinite;
                }

                @keyframes float3 {
                    0%{transform: translate(0, 0)}
                    50%{transform: translate(0, -10px)}
                    100%{transform: translate(0, 0)}
                }

                .triangle-float3 {
                    animation: float3 6s infinite;
                }
            </style></defs></svg>